<svg xmlns="http://www.w3.org/2000/svg" width="48" height="48" viewBox="0 0 48 48" fill="none" role="img" aria-label="UroScan mark">
  <defs>
    <clipPath id="drop">
      <path d="M24 3.5C24 3.5 37.5 21 37.5 30.5C37.5 38.0 31.4 44 24 44C16.6 44 10.5 38.0 10.5 30.5C10.5 21 24 3.5 24 3.5Z"></path>
    </clipPath>
  </defs>
  
  <path d="M24 3.5C24 3.5 37.5 21 37.5 30.5C37.5 38.0 31.4 44 24 44C16.6 44 10.5 38.0 10.5 30.5C10.5 21 24 3.5 24 3.5Z" fill="#1a4fd6"></path>
  
  <g clip-path="url(#drop)">
    <rect x="6" y="31.5" width="36" height="16" fill="#2e63f0"></rect>
    
    <rect x="6" y="29.5" width="36" height="2.4" fill="#2dd4c4"></rect>
    
    <ellipse cx="19" cy="19" rx="3.2" ry="5" fill="#ffffff" opacity="0.30"></ellipse>
  </g>
</svg>